<svg xmlns="http://www.w3.org/2000/svg" viewBox="0 0 950 175.92">
  <g id="Ebene_2" data-name="Ebene 2">
    <g id="Ebene_1-2" data-name="Ebene 1">
      <g>
        <path d="M909.58,27.34a13.08,13.08,0,0,1,26.16,0H950A27.24,27.24,0,0,0,902.45,9.09a27.23,27.23,0,0,0-47.54,18.25V54a47.67,47.67,0,0,0-69.08,2.63l0,0a27.15,27.15,0,0,0-45-7.28h-.24V42.2h-33.2V1.78H693.15V42.2H659.78V56.45h33.37v51.72a27.34,27.34,0,0,0,54.68,0V67.75a13.08,13.08,0,1,1,26.15,0v20.1h.09V88a47.52,47.52,0,0,0,90,21.39h-17a33.23,33.23,0,0,1-58-14.26H868.6a48.07,48.07,0,0,0,.57-7.13V56.45h26.15v71.93h14.26V56.45h33.29V42.2H909.58V27.34Zm-176,80.83a13.08,13.08,0,1,1-26.16,0V56.45h26.16v51.72Zm55.61-27.35a33.24,33.24,0,0,1,65,0Zm80-38.62V27.34a13.08,13.08,0,1,1,26.15,0V42.2Z" style="fill: #d7d7d7"/>
        <polygon points="538.52 95.09 619.35 95.09 619.35 80.83 538.52 80.83 538.52 95.09 538.52 95.09" style="fill: #d7d7d7"/>
        <path d="M499.23,87.55V42.2H485V54a47.47,47.47,0,0,0-73.69,9,47.51,47.51,0,0,0-88,25v20.22a13.08,13.08,0,1,1-26.16,0V27.34a27.34,27.34,0,1,0-54.67,0V54h0a47.48,47.48,0,0,0-73.72,9h0a47.39,47.39,0,0,0-73.68-8.94V42.2H80.81V54.06l0,0a47.55,47.55,0,1,0,0,67.87l0,0v11.87H95.06V88a33.28,33.28,0,0,1,66.56-.11s0,.07,0,.1,0,.25,0,.37v45.4h14.26V121.9a47.52,47.52,0,0,0,66.57,0h0v11.84h14.26V27.34a13.08,13.08,0,1,1,26.15,0v80.83a27.31,27.31,0,0,0,52.28,11.09l0,.06a47.4,47.4,0,0,0,76.06-6.42,47.47,47.47,0,0,0,73.69,9v26.69a13.08,13.08,0,0,1-26.15,0H444.55a27.34,27.34,0,0,0,54.68,0V88.35c0-.13,0-.26,0-.4s0-.26,0-.4ZM47.48,121.25A33.3,33.3,0,1,1,80.77,88a33.28,33.28,0,0,1-33.29,33.3Zm161.68,0a33.33,33.33,0,0,1-33.27-33.11V88s0-.08,0-.13a33.29,33.29,0,1,1,33.28,33.42Zm161.69,0A33.34,33.34,0,0,1,337.56,88v0h0a33.29,33.29,0,1,1,33.29,33.3Zm80.84,0A33.3,33.3,0,1,1,485,87.75v.4a33.32,33.32,0,0,1-33.27,33.1Z" style="fill: #d7d7d7"/>
      </g>
    </g>
  </g>
</svg>
